<svg xmlns="http://www.w3.org/2000/svg" width="122.982" height="110.995" viewBox="0 0 122.982 110.995"><defs><style>.a{fill:#f98770;}</style></defs><g transform="translate(0 -0.501)"><path class="a" d="M42.4,262.6a2.4,2.4,0,1,0,2.4,2.4A2.4,2.4,0,0,0,42.4,262.6Zm0,0" transform="translate(-30.392 -199.141)"/><path class="a" d="M110.4,240.534l-22.645,7.785A9.585,9.585,0,0,0,78.3,237.008H62.75a2.4,2.4,0,0,1-1.179-.309l-12.69-7.138a16.828,16.828,0,0,0-8.246-2.162H23.606a7.216,7.216,0,0,0-6.792-4.8H2.4A2.4,2.4,0,0,0,0,225v43.235a2.4,2.4,0,0,0,2.4,2.4H16.814a7.22,7.22,0,0,0,6.725-4.623,21.928,21.928,0,0,1,7.842,2.328l12.562,7.537A30.621,30.621,0,0,0,72.369,277.5L117.2,257.76a9.26,9.26,0,0,0-6.8-17.226ZM19.216,263.442a2.4,2.4,0,0,1-2.4,2.391H4.8V227.4h12.01a2.4,2.4,0,0,1,2.4,2.4Zm96.16-10.124-.076.031L70.393,273.122a25.816,25.816,0,0,1-23.978-1.362l-12.563-7.537a26.485,26.485,0,0,0-9.832-2.99V232.205H40.634a12.017,12.017,0,0,1,5.89,1.543l12.69,7.138a7.217,7.217,0,0,0,3.535.927H78.3a4.8,4.8,0,0,1,0,9.608H53.887a2.4,2.4,0,1,0,0,4.8H78.3a9.589,9.589,0,0,0,4.5-1.125l29.206-10.04a4.459,4.459,0,1,1,3.363,8.258Zm0,0" transform="translate(0 -168.749)"/><path class="a" d="M191.487,58.763a2.4,2.4,0,0,0,3.147,0c19.6-16.985,31.721-25.58,31.721-38.938C226.354,9.258,218.873.5,208.364.5c-6.9,0-12.187,3.978-15.591,9.949C189.376,4.492,184.1.5,177.184.5c-8.046,0-14.772,5.214-17.137,13.282a2.4,2.4,0,1,0,4.61,1.351c1.75-5.971,6.667-9.829,12.527-9.829,6.852,0,11.659,6.085,13.274,11.75a2.4,2.4,0,0,0,4.63,0c.033-.117,3.369-11.75,13.277-11.75,7.518,0,13.187,6.241,13.187,14.52,0,10.685-10.445,18.389-28.492,33.949-11-9.443-19.73-16.09-24.695-22.592a2.4,2.4,0,1,0-3.819,2.915c5.6,7.329,15.043,14.351,26.942,24.666Zm0,0" transform="translate(-121.529)"/><path class="a" d="M161.4,88.6a2.4,2.4,0,1,0,2.4,2.4A2.4,2.4,0,0,0,161.4,88.6Zm0,0" transform="translate(-120.808 -66.936)"/></g></svg>