<svg xmlns="http://www.w3.org/2000/svg" width="708.144" height="567.368" viewBox="0 0 708.144 567.368"><defs><style>.a{fill:#3f3d56;}.b{fill:#e7e3e4;}.c{fill:#f98770;}.d{fill:#f2f2f2;}.e{fill:none;stroke:#3f3d56;stroke-miterlimit:10;stroke-width:2px;}.f{fill:tomato;}.g{fill:#fbbebe;}.h{fill:#2f2e41;}.i{opacity:0.1;}</style></defs><g transform="translate(-0.067 -0.054)"><ellipse class="a" cx="163.917" cy="13.731" rx="163.917" ry="13.731" transform="translate(363.814 539.96)"/><path class="b" d="M962.784,560.34c0,67.288-40,90.783-89.346,90.783s-89.347-23.5-89.347-90.783,89.347-152.89,89.347-152.89S962.784,493.051,962.784,560.34Z" transform="translate(-271.993 -160.252)"/><path class="a" d="M691.08,521.411l.915-56.315,38.081-69.668-37.938,60.835.411-25.321,26.246-50.405-26.137,43.7h0l.74-45.542,28.1-40.128-27.988,32.967.462-83.506-2.905,110.547.239-4.561-28.574-43.738,28.116,52.492-2.662,50.862-.079-1.35-32.941-46.027,32.842,50.8-.333,6.36-.06.1.027.522L680.89,593.073h9.025L691,526.421l32.76-50.672Z" transform="translate(-92.889 -40.833)"/><path class="c" d="M951.321,719.454c0,19.283-11.463,26.015-25.6,26.015q-.491,0-.981-.011c-.655-.014-1.3-.045-1.945-.089-12.762-.9-22.677-7.982-22.677-25.916,0-18.559,23.716-41.977,25.5-43.71l0,0,.1-.1S951.321,700.171,951.321,719.454Z" transform="translate(-288.444 -198.279)"/><path class="a" d="M927.16,742.519l9.365-13.085-9.388,14.522-.025,1.5c-.655-.014-1.3-.045-1.945-.089l1.009-19.292-.008-.15.017-.028.1-1.822-9.411-14.557,9.441,13.191.022.387.763-14.576-8.057-15.043,8.155,12.484.794-30.219,0-.1v.1l-.133,23.83,8.021-9.447-8.054,11.5-.212,13.051L935.1,702.15l-7.521,14.445-.119,7.255,10.873-17.433-10.914,19.964Z" transform="translate(-290.82 -198.279)"/><circle class="d" cx="41.111" cy="41.111" r="41.111" transform="translate(152.172 138.438)"/><circle class="e" cx="41.111" cy="41.111" r="41.111" transform="translate(160.678 126.152)"/><path class="b" d="M342.621,222.644l-33.1-55.441a26.434,26.434,0,1,0-10.869,8.154Z" transform="translate(-198.009 -120.119)"/><circle class="f" cx="12.286" cy="12.286" r="12.286" transform="translate(78.456 18.412)"/><path class="b" d="M479.588,215.541l45.787-45.528a26.434,26.434,0,1,0-10.542-8.574Z" transform="translate(-228.816 -119.418)"/><circle class="f" cx="12.286" cy="12.286" r="12.286" transform="translate(295.147 14.19)"/><path class="b" d="M516.753,349.635l55.253,33.412a26.434,26.434,0,1,0,5.768-12.3Z" transform="translate(-234.086 -152.054)"/><circle class="f" cx="12.286" cy="12.286" r="12.286" transform="translate(351.666 223.423)"/><path class="b" d="M403.806,414.3,384.753,475.99a26.434,26.434,0,1,0,13.333,2.621Z" transform="translate(-211.867 -161.222)"/><circle class="c" cx="12.286" cy="12.286" r="12.286" transform="translate(162.32 328.881)"/><path class="b" d="M303.539,323.737l-64.471-3.562a26.434,26.434,0,1,0,.682,13.571Z" transform="translate(-187.394 -145.272)"/><circle class="c" cx="12.286" cy="12.286" r="12.286" transform="translate(14.188 170.674)"/><circle class="d" cx="12.663" cy="12.663" r="12.663" transform="translate(682.884 28.98)"/><circle class="e" cx="12.663" cy="12.663" r="12.663" transform="translate(677.735 24.689)"/><rect class="c" width="28.607" height="28.607" transform="translate(586.948 44.488)"/><rect class="e" width="28.607" height="28.607" transform="translate(592.67 38.767)"/><path class="g" d="M793.6,706.082s-2.575,16.306-6.866,18.881,22.313,8.582,22.313,8.582l4.291-25.746Z" transform="translate(-272.3 -202.596)"/><path class="h" d="M824.435,489.082l9.44,11.157-4.291,38.619-3.433,76.38s6.866,66.082,0,67.8-37.761.858-36.9-3.433,1.716-7.724,3.433-13.731-1.716-27.463-1.716-27.463l4.291-24.03L779.808,510.537Z" transform="translate(-271.385 -171.827)"/><path class="h" d="M789.091,724.956s-9.44-1.716-10.3,0-17.164,19.739-19.739,19.739-21.455,17.164-1.716,18.022,52.351-14.589,52.351-14.589-4.8-21.838-4.545-20.789S789.091,729.247,789.091,724.956Z" transform="translate(-266.937 -205.164)"/><path class="g" d="M783.808,676.813s24.03,26.6,24.888,29.179,13.731,0,13.731,0l5.149-17.164-4.291-6.007-24.03-19.739Z" transform="translate(-271.952 -196.499)"/><path class="h" d="M821.752,699.077,809.308,710.79s15.877,24.332,15.877,26.906.858,24.03,9.44,20.6,9.44-37.761,9.44-37.761-.858-35.186-6.007-37.761-16.435-1.761-16.435-1.761S828.618,698.219,821.752,699.077Z" transform="translate(-275.568 -199.023)"/><path class="h" d="M735.628,399.5s-4.291,13.731-5.149,17.164-6.007,12.873-6.007,27.463,1.716,31.754,0,33.47-29.179,97.836-17.164,108.134,51.492,44.627,54.067,48.918,3.433,14.589,8.582,12.873S794.844,628.637,795.7,625.2s-11.157-9.44-11.157-9.44-24.03-35.186-30.037-34.328-5.149-4.291-4.291-6.866,2.575-4.291,0-4.291-.858-6.866,0-10.3,20.6-49.776,20.6-49.776l52.351-23.172s-2.575-62.649-21.455-79.813l-4.291-10.3S749.359,393.488,735.628,399.5Z" transform="translate(-260.675 -158.62)"/><path class="g" d="M761.7,242.082s4.291,30.037-6.007,31.754-18.881.858-18.881,1.716,25.746,27.463,25.746,27.463l24.03-1.716,21.455-23.172S788.3,274.694,788.3,262.679s-.858-20.6-.858-20.6Z" transform="translate(-265.288 -136.804)"/><path class="i" d="M761.7,242.082s4.291,30.037-6.007,31.754-18.881.858-18.881,1.716,25.746,27.463,25.746,27.463l24.03-1.716,21.455-23.172S788.3,274.694,788.3,262.679s-.858-20.6-.858-20.6Z" transform="translate(-265.288 -136.804)"/><circle class="g" cx="26.604" cy="26.604" r="26.604" transform="translate(483.105 64.513)"/><path class="a" d="M747.815,276.082s-33.47,4.291-36.045,15.448,17.164,80.671,19.739,86.679,1.716,10.3,1.716,10.3a33.956,33.956,0,0,1,27.463-6.007c16.306,3.433,39.477,1.716,39.477,1.716s7.724-31.754,9.44-35.186,8.582-22.313,8.582-27.463,10.3-26.6,10.3-26.6-5.149-15.448-24.03-14.59c0,0-8.236-3.686-10.554-.985s-15.192,14.716-31.5,9.567S747.815,276.082,747.815,276.082Z" transform="translate(-261.705 -141.625)"/><path class="a" d="M720.4,293.082h-9.44l-5.149,67.8s18.881,5.149,21.455,1.716S720.4,293.082,720.4,293.082Z" transform="translate(-260.893 -144.035)"/><path class="a" d="M708.365,364.061l-2.575,6.866s-1.716,22.313,8.582,21.455,16.306-13.731,16.306-13.731-6.007-16.306-12.873-14.59S708.365,364.061,708.365,364.061Z" transform="translate(-260.875 -154.082)"/><path class="a" d="M828.808,293.082l16.306,4.291S857.129,341.142,857.987,342s1.716,6.007,1.716,6.007,0,.858,1.716,3.433,4.291.858,2.575,4.291-4.291,1.716-2.575,5.149.858,12.873.858,12.873-4.291-16.306-19.739-12.015l-10.3-46.343Z" transform="translate(-278.333 -144.035)"/><path class="h" d="M742.247,197.218c-5.41,9.505-6.629,20.764-7.375,31.676-.32,4.68-.561,9.483.827,13.963,1.464,4.725,4.72,9.525,3.05,14.18-1.615,4.5-7.016,6.3-10.033,10.018-2.556,3.146-3.2,7.458-2.976,11.505s1.2,8.022,1.491,12.066a35.743,35.743,0,0,1-7.688,24.635c12.926-.5,26.747-6.23,32.2-17.962,1.63-3.507,2.422-7.345,3.893-10.922,1.664-4.046,4.174-7.708,5.75-11.79,2.377-6.158,2.506-12.919,2.6-19.519.059-3.951.1-8.007-1.266-11.714-3.01-8.161-12.369-13.433-13.3-22.081a4.369,4.369,0,0,1,.386-2.689A7.135,7.135,0,0,1,751.379,217c5.844-5.158,4.881-16.079,11.838-19.6,3.122-1.578,6.885-1.023,10.237-.024,3.723,1.109,7.437,2.827,9.859,5.864,4.877,6.115,2.952,14.949,1.443,22.624a135.05,135.05,0,0,0-2.308,33.824,21.884,21.884,0,0,0,.8,5.357c.9,2.833,2.806,5.212,4.248,7.81a25.8,25.8,0,0,1,2.692,17.523c-1.065,5.2-3.709,10.738-1.381,15.509a14.006,14.006,0,0,0,4.176,4.643c7.606,5.961,17.26,9.655,22.915,17.491.974-6.4-.884-12.842-2.256-19.169s-2.206-13.216.612-19.044c1.237-2.557,3.127-4.782,4.137-7.436,2.335-6.13-.448-12.853-2.138-19.191a114.281,114.281,0,0,1-2.61-15.124l-1.743-13.75c-1.441-11.367-2.948-22.966-7.94-33.279-9.406-19.436-30.693-26.655-49.753-15.885a32.227,32.227,0,0,0-11.958,12.073Z" transform="translate(-262.84 -128.021)"/><path class="g" d="M718.469,363.1s-5.149,15.448.858,15.448,17.164-9.44,18.022-17.164,16.306-36.9,5.149-34.328-16.306,24.03-16.306,24.03Z" transform="translate(-262.397 -148.83)"/><path class="c" d="M627.734,173.663l-28.321,91.828,38.619,8.582,28.321-89.254Z" transform="translate(-84.983 -24.617)"/><path class="g" d="M849.978,367.735l5.361,8.96s2.362,16.786-9.652,16.786-29.179-16.306-29.179-16.306-8.582-3.433-13.731-2.575-33.47,0-21.455-14.59,32.612,0,32.612,0l21.455,10.3,11.157-6.007Z" transform="translate(-271.183 -152.606)"/><path class="a" d="M851.89,356.3l-8.582,13.731s19.739,2.575,21.455,6.866-7.724-22.313-7.724-22.313Z" transform="translate(-280.389 -152.755)"/></g></svg>